<?xml version="1.0" encoding="UTF-8" standalone="no"?>
<!DOCTYPE svg PUBLIC "-//W3C//DTD SVG 1.1//EN" "http://www.w3.org/Graphics/SVG/1.1/DTD/svg11.dtd">
<svg width="100%" height="100%" viewBox="0 0 773 210" version="1.1" xmlns="http://www.w3.org/2000/svg" xmlns:xlink="http://www.w3.org/1999/xlink" xml:space="preserve" xmlns:serif="http://www.serif.com/" style="fill-rule:evenodd;clip-rule:evenodd;stroke-linejoin:round;stroke-miterlimit:2;">
    <g transform="matrix(1.10329,0,0,1.10329,-322.227,-84.801)">
        <path d="M292.06,131.323C292.06,122.797 293.16,115.37 295.636,109.319C298.386,103.268 301.412,98.316 305.263,94.191C309.389,90.065 313.515,87.039 318.19,84.839C322.866,82.363 327.542,80.713 331.943,79.613C336.344,78.512 340.47,77.687 344.046,77.412C347.622,77.137 350.097,76.862 352.023,76.862L356.423,76.862C358.074,76.862 360.824,77.137 364.4,77.412C367.976,77.687 371.827,78.512 376.228,79.613C380.629,80.713 385.305,82.363 389.981,84.839C394.656,87.039 399.057,90.065 402.633,94.191C406.484,98.316 409.785,103.268 412.26,109.319C414.736,115.37 415.836,122.797 415.836,131.323L415.836,211.64C415.836,220.442 414.736,227.869 412.26,234.195C409.785,240.246 406.484,245.472 402.633,249.598C399.057,253.724 394.656,257.025 389.981,259.225C385.305,261.701 380.629,263.351 376.228,264.726C371.827,265.827 367.976,266.377 364.4,266.652C360.824,266.927 358.074,267.202 356.423,267.202L352.023,267.202C350.097,267.202 347.622,266.927 344.046,266.652C340.47,266.377 336.344,265.827 331.943,264.726C327.542,263.351 322.866,261.701 318.19,259.225C313.515,257.025 309.389,253.724 305.263,249.598C301.412,245.472 298.386,240.246 295.636,234.195C293.16,227.869 292.06,220.442 292.06,211.64L292.06,131.323ZM336.619,216.591C336.894,219.892 337.445,222.918 338.82,225.393C339.92,227.594 341.845,229.794 344.046,231.444C346.521,233.37 349.822,234.195 354.223,234.195C358.624,234.195 361.925,233.37 364.125,231.444C366.601,229.794 368.251,227.594 369.626,225.393C370.726,222.918 371.552,219.892 371.827,216.591L371.827,129.123C371.552,125.822 370.726,123.072 369.626,120.321C368.251,118.121 366.601,116.195 364.125,114.27C361.925,112.619 358.624,111.519 354.223,111.519C349.822,111.519 346.521,112.619 344.046,114.27C341.845,116.195 339.92,118.121 338.82,120.321C337.445,123.072 336.894,125.822 336.619,129.123L336.619,216.591ZM449.058,109.044C449.058,105.193 449.333,101.342 449.608,97.766C450.158,93.916 450.983,90.615 452.358,87.864C453.734,84.839 455.659,82.638 458.41,80.713C461.16,79.062 464.736,77.962 469.687,77.962C474.088,77.962 477.939,79.062 480.689,80.713C483.44,82.638 485.365,84.839 486.741,87.864C488.116,90.615 488.941,93.916 489.491,97.766C489.766,101.342 490.041,105.193 490.041,109.044L490.041,151.128L526.899,151.128L526.899,109.044C526.899,105.193 526.899,101.342 527.174,97.766C527.724,93.916 528.549,90.615 529.925,87.864C531.3,84.839 533.225,82.638 535.976,80.713C538.726,79.062 542.302,77.962 547.253,77.962C551.929,77.962 555.505,79.062 558.256,80.713C561.006,82.638 562.932,84.839 564.307,87.864C565.957,90.615 566.782,93.916 567.057,97.766C567.332,101.342 567.608,105.193 567.608,109.044L567.608,235.295C567.608,239.146 567.332,242.997 567.057,246.573C566.782,250.423 565.957,253.724 564.307,256.475C562.932,259.5 561.006,261.701 558.256,263.351C555.505,265.276 551.929,266.102 547.253,266.102C542.302,266.102 538.726,265.276 535.976,263.351C533.225,261.701 531.3,259.5 529.925,256.475C528.549,253.724 527.724,250.423 527.174,246.573C526.899,242.997 526.899,239.146 526.899,235.295L526.899,190.736L490.041,190.736L490.041,235.295C490.041,239.146 489.766,242.997 489.491,246.573C488.941,250.423 488.116,253.724 486.741,256.475C485.365,259.5 483.44,261.701 480.689,263.351C477.939,265.276 474.088,266.102 469.687,266.102C464.736,266.102 461.16,265.276 458.41,263.351C455.659,261.701 453.734,259.5 452.358,256.475C450.983,253.724 450.158,250.423 449.608,246.573C449.333,242.997 449.058,239.146 449.058,235.295L449.058,109.044ZM639.489,125.272C639.764,129.123 640.865,132.424 642.79,135.449C644.99,138.475 647.741,141.225 651.317,143.976C654.617,146.727 658.468,149.202 662.869,151.953C667.27,154.428 671.946,157.179 676.347,159.929C681.023,162.68 685.424,165.706 689.825,169.006C694.226,172.582 698.352,176.158 701.652,180.284C705.228,184.685 707.979,189.361 710.179,194.587C712.38,199.813 713.48,205.864 713.755,212.74L713.755,213.841C713.755,220.992 712.93,227.594 711.004,232.82C709.354,238.321 706.878,242.997 703.853,247.123C700.827,250.973 697.526,254.274 693.676,256.75C689.55,259.225 685.424,261.426 681.023,262.801C676.897,264.451 672.496,265.551 668.095,266.102C663.419,266.652 659.293,267.202 655.443,267.202L654.067,267.202C646.366,267.202 639.764,266.377 633.988,265.001C628.212,263.351 623.536,261.426 619.41,258.675C615.284,256.2 611.708,253.174 608.958,249.873C606.207,246.573 604.007,243.272 602.632,239.696C600.981,236.12 599.606,232.545 599.056,229.244C598.231,225.668 597.956,222.367 597.956,219.342C597.956,216.316 598.506,213.566 599.606,211.09C600.706,208.89 602.081,206.964 603.732,205.589C605.657,203.939 607.583,202.838 609.783,202.288C611.983,201.463 614.459,201.188 616.935,201.188C619.41,201.188 621.611,201.463 624.086,202.288C626.562,202.838 629.037,203.939 630.962,205.589C632.888,206.964 634.538,208.89 635.913,211.09C637.289,213.291 637.839,216.041 637.839,219.067C638.114,225.943 639.764,230.344 642.515,232.82C645.265,235.295 649.391,236.67 654.892,236.67C657.643,236.395 660.119,236.12 662.319,235.57C664.519,235.02 666.445,233.92 668.095,232.545C669.746,230.894 671.121,228.969 671.946,226.493C673.046,224.018 673.321,220.992 673.321,217.141C673.321,212.465 672.496,208.34 670.296,204.489C668.095,200.913 665.345,197.337 662.044,194.037C658.743,191.011 654.617,187.71 650.216,184.96C645.816,181.934 641.415,179.183 637.014,176.158C632.338,173.407 627.937,170.107 623.536,167.081C619.135,163.78 615.284,160.479 611.708,156.629C608.408,152.778 605.382,148.652 603.457,144.251C601.256,139.575 600.156,134.349 600.156,128.573L600.156,126.372C600.156,116.745 601.531,108.769 604.007,102.442C606.482,96.116 610.058,91.165 614.734,87.314C619.685,83.463 625.461,80.988 632.338,79.338C639.489,77.687 647.466,76.862 656.543,76.862L660.119,76.862C668.37,76.862 675.247,77.962 681.023,79.613C686.799,81.538 691.475,83.738 695.326,86.489C699.177,89.24 701.927,92.54 704.128,95.841C706.328,99.417 707.979,102.992 709.079,106.293C710.179,109.594 711.004,112.895 711.279,115.92C711.554,118.671 711.554,121.146 711.554,122.797C711.554,125.547 711.004,128.023 709.904,130.223C709.079,132.424 707.704,134.349 705.778,135.724C704.128,137.375 701.927,138.475 699.727,139.3C697.251,140.125 694.776,140.675 692.025,140.675C689.825,140.675 687.624,140.125 685.424,139.3C683.498,138.475 681.573,137.375 679.648,135.999C677.997,134.624 676.622,133.249 675.522,131.323C674.422,129.673 673.871,128.023 673.871,126.097C673.871,118.946 672.771,113.72 670.021,110.969C667.27,107.944 663.419,106.568 658.468,106.568C655.993,106.568 653.517,106.568 651.317,106.843C649.116,107.118 646.916,107.944 645.265,109.044C643.615,110.419 642.24,112.344 641.14,114.82C640.039,117.295 639.489,120.871 639.489,125.272ZM813.907,77.962C817.483,77.962 821.059,78.237 824.91,78.512C828.485,78.787 831.786,79.613 834.812,80.713C837.562,82.088 840.038,84.013 841.963,86.489C843.889,88.965 844.714,92.54 844.714,97.216C844.714,101.617 843.889,105.193 841.963,107.944C840.038,110.419 837.562,112.344 834.812,113.445C831.786,114.82 828.485,115.645 824.91,115.92C821.059,116.195 817.483,116.195 813.907,116.195L782.001,116.195L782.001,152.778L798.779,152.778C802.355,152.778 805.931,152.778 809.781,153.053C813.357,153.328 816.658,154.153 819.408,155.253C822.159,156.354 824.359,158.279 826.285,160.755C827.935,163.23 829.035,166.531 829.035,170.932C829.035,175.608 827.935,178.908 826.285,181.384C824.359,183.859 822.159,185.51 819.408,186.885C816.658,187.985 813.357,188.81 809.781,188.81C805.931,189.085 802.355,189.361 798.779,189.361L782.001,189.361L782.001,227.869L813.907,227.869C817.483,227.869 821.059,228.144 824.91,228.419C828.485,228.694 831.786,229.244 834.812,230.619C837.562,231.719 840.038,233.645 841.963,236.12C843.889,238.871 844.714,242.172 844.714,246.848C844.714,251.524 843.889,255.099 841.963,257.575C840.038,260.325 837.562,262.251 834.537,263.351C831.511,264.726 828.21,265.551 824.635,265.827C821.059,266.102 817.483,266.102 813.907,266.102L761.371,266.102C756.145,266.102 752.294,265.276 749.544,263.351C746.793,261.701 744.868,259.225 743.768,256.475C742.392,253.449 741.567,250.148 741.567,246.573C741.292,242.722 741.017,239.146 741.017,235.295L741.017,109.044C741.017,105.193 741.292,101.342 741.567,97.766C741.567,93.916 742.392,90.615 743.768,87.864C744.868,84.839 746.793,82.638 749.544,80.713C752.294,79.062 756.145,77.962 761.371,77.962L813.907,77.962ZM942.485,235.845C942.485,239.421 942.485,243.272 941.935,246.848C941.66,250.423 940.835,253.724 939.46,256.475C938.084,259.5 936.159,261.701 933.408,263.351C930.658,265.276 927.082,266.102 922.406,266.102C917.73,266.102 913.879,265.276 911.404,263.351C908.653,261.701 906.453,259.5 905.077,256.475C903.702,253.724 902.877,250.423 902.602,246.848C902.327,243.272 902.052,239.421 902.052,235.845L902.052,189.085L861.893,117.571C859.968,113.72 857.767,110.144 855.842,106.568C853.917,102.717 852.816,99.142 852.816,95.566C852.816,93.09 853.642,90.615 855.017,88.139C856.392,85.664 858.868,83.463 862.443,81.263C866.569,79.062 870.42,77.962 873.721,77.962C876.471,77.962 878.947,78.787 881.147,79.888C883.348,80.988 885.273,82.638 887.199,84.564C888.849,86.489 890.499,88.965 891.875,91.44C893.25,93.641 894.625,96.116 895.725,98.867L920.206,150.027L924.606,150.027L949.087,98.867C950.187,96.116 951.562,93.641 952.937,91.44C954.313,88.965 955.963,86.489 957.888,84.564C959.539,82.638 961.464,80.988 963.665,79.888C965.865,78.787 968.341,77.962 971.091,77.962C973.017,77.962 974.667,78.237 976.592,78.787C978.243,79.338 980.168,80.163 982.369,81.263C985.944,83.463 988.42,85.664 989.795,88.139C991.17,90.615 991.996,93.09 991.996,95.566C991.996,97.216 991.17,99.692 989.795,103.268C988.42,107.118 986.219,111.794 982.919,117.571L942.485,189.085L942.485,235.845Z" style="fill:rgb(180,126,147);fill-rule:nonzero;"/>
    </g>
</svg>
